<svg version="1.1" id="Layer_1" xmlns="http://www.w3.org/2000/svg" xmlns:xlink="http://www.w3.org/1999/xlink" x="0px" y="0px"
	 width="100%" viewBox="0 0 100 100" enable-background="new 0 0 100 100" xml:space="preserve">
<path fill="#091827" opacity="1.000000" stroke="none" 
	d="
M50.000000,101.000000 
	C33.333336,101.000000 17.166672,101.000000 1.000006,101.000000 
	C1.000004,67.666672 1.000004,34.333351 1.000002,1.000020 
	C34.333317,1.000013 67.666634,1.000013 100.999969,1.000007 
	C100.999977,34.333313 100.999977,67.666626 100.999985,100.999969 
	C84.166664,101.000000 67.333336,101.000000 50.000000,101.000000 
M85.251640,57.219799 
	C96.828285,57.124199 96.505455,58.852955 96.004578,49.131989 
	C95.820839,45.565762 94.381836,44.447243 91.071091,44.690609 
	C88.666130,44.867397 86.237717,44.725143 83.317909,44.725143 
	C83.729630,49.329140 84.077126,53.215073 85.251640,57.219799 
M8.482767,57.075047 
	C10.954747,57.121124 13.455785,57.405758 15.886093,57.109730 
	C17.050819,56.967857 18.916195,55.827442 19.020075,54.965263 
	C19.361382,52.132523 19.165865,49.207462 18.874302,46.348705 
	C18.813711,45.754620 17.486807,44.905975 16.690014,44.842129 
	C14.232053,44.645180 11.715257,44.540985 9.291162,44.888294 
	C8.361332,45.021511 6.917782,46.471760 6.918483,47.320881 
	C6.921072,50.454311 7.429837,53.587326 8.482767,57.075047 
M26.059919,52.418766 
	C28.376202,54.134396 30.692484,55.850021 33.008766,57.565651 
	C33.284142,57.173138 33.559521,56.780628 33.834900,56.388119 
	C32.491512,54.562553 31.148130,52.736992 29.831167,50.947334 
	C31.330444,48.912987 32.662544,47.105480 33.994644,45.297974 
	C33.665058,44.935947 33.335468,44.573917 33.005882,44.211887 
	C30.561949,46.074863 28.118015,47.937840 25.751326,49.741936 
	C24.772850,47.580120 24.081930,46.053623 23.391012,44.527130 
	C23.022348,44.709312 22.653687,44.891495 22.285023,45.073677 
	C22.285023,49.063988 22.285023,53.054295 22.285023,57.044605 
	C22.733223,57.155888 23.181421,57.267170 23.629622,57.378452 
	C24.164036,55.818439 24.698450,54.258427 26.059919,52.418766 
M81.059143,47.772675 
	C80.661499,46.922104 80.274002,45.341259 79.864609,45.335564 
	C76.335060,45.286488 70.977455,44.207939 69.700089,45.981892 
	C67.820374,48.592365 68.850655,53.298233 68.641357,57.111519 
	C69.255707,57.157360 69.870056,57.203197 70.484398,57.249035 
	C70.984596,55.901310 71.484795,54.553589 71.930092,53.353806 
	C74.082359,53.353806 75.872391,53.353806 77.388275,53.353806 
	C78.271492,54.853573 79.022148,56.128258 79.772804,57.402939 
	C80.208862,57.255714 80.644913,57.108486 81.080963,56.961258 
	C81.080963,54.210224 81.080963,51.459187 81.059143,47.772675 
M58.281815,54.323338 
	C57.582474,53.140831 56.494587,52.026093 56.273773,50.760117 
	C55.932434,48.803181 56.183788,46.742867 56.183788,44.726391 
	C55.413986,44.695614 54.644184,44.664841 53.874382,44.634064 
	C53.672771,48.665302 53.471157,52.696545 53.260384,56.911018 
	C57.867805,56.911018 61.863792,56.911018 65.859779,56.911018 
	C65.975990,56.338196 66.092209,55.765369 66.208420,55.192547 
	C63.887402,54.909695 61.566380,54.626846 58.281815,54.323338 
M38.599503,44.768547 
	C38.176430,44.938583 37.753357,45.108620 37.330284,45.278656 
	C39.317837,49.207142 41.291718,53.142811 43.340538,57.039082 
	C43.426746,57.203022 44.210213,57.000313 43.739384,57.033058 
	C45.979557,52.689014 47.932549,48.901855 49.885540,45.114693 
	C49.677139,44.834270 49.468739,44.553852 49.260334,44.273434 
	C47.312164,45.828377 45.363991,47.383320 43.512386,48.861191 
	C42.082813,47.500000 40.665394,46.150379 38.599503,44.768547 
z"/>
<path fill="#D9DEE0" opacity="1.000000" stroke="none" 
	d="
M84.838135,57.160400 
	C84.077126,53.215073 83.729630,49.329140 83.317909,44.725143 
	C86.237717,44.725143 88.666130,44.867397 91.071091,44.690609 
	C94.381836,44.447243 95.820839,45.565762 96.004578,49.131989 
	C96.505455,58.852955 96.828285,57.124199 84.838135,57.160400 
z"/>
<path fill="#DDE3E5" opacity="1.000000" stroke="none" 
	d="
M8.115523,56.897774 
	C7.429837,53.587326 6.921072,50.454311 6.918483,47.320881 
	C6.917782,46.471760 8.361332,45.021511 9.291162,44.888294 
	C11.715257,44.540985 14.232053,44.645180 16.690014,44.842129 
	C17.486807,44.905975 18.813711,45.754620 18.874302,46.348705 
	C19.165865,49.207462 19.361382,52.132523 19.020075,54.965263 
	C18.916195,55.827442 17.050819,56.967857 15.886093,57.109730 
	C13.455785,57.405758 10.954747,57.121124 8.115523,56.897774 
z"/>
<path fill="#E3EAED" opacity="1.000000" stroke="none" 
	d="
M25.646393,52.558590 
	C24.698450,54.258427 24.164036,55.818439 23.629622,57.378452 
	C23.181421,57.267170 22.733223,57.155888 22.285023,57.044605 
	C22.285023,53.054295 22.285023,49.063988 22.285023,45.073677 
	C22.653687,44.891495 23.022348,44.709312 23.391012,44.527130 
	C24.081930,46.053623 24.772850,47.580120 25.751326,49.741936 
	C28.118015,47.937840 30.561949,46.074863 33.005882,44.211887 
	C33.335468,44.573917 33.665058,44.935947 33.994644,45.297974 
	C32.662544,47.105480 31.330444,48.912987 29.831167,50.947334 
	C31.148130,52.736992 32.491512,54.562553 33.834900,56.388119 
	C33.559521,56.780628 33.284142,57.173138 33.008766,57.565651 
	C30.692484,55.850021 28.376202,54.134396 25.646393,52.558590 
z"/>
<path fill="#EFF5F6" opacity="1.000000" stroke="none" 
	d="
M81.070053,48.240410 
	C81.080963,51.459187 81.080963,54.210224 81.080963,56.961258 
	C80.644913,57.108486 80.208862,57.255714 79.772804,57.402939 
	C79.022148,56.128258 78.271492,54.853573 77.388275,53.353806 
	C75.872391,53.353806 74.082359,53.353806 71.930092,53.353806 
	C71.484795,54.553589 70.984596,55.901310 70.484398,57.249035 
	C69.870056,57.203197 69.255707,57.157360 68.641357,57.111519 
	C68.850655,53.298233 67.820374,48.592365 69.700089,45.981892 
	C70.977455,44.207939 76.335060,45.286488 79.864609,45.335564 
	C80.274002,45.341259 80.661499,46.922104 81.070053,48.240410 
M78.093262,50.092800 
	C78.870300,45.591171 75.392365,47.572899 73.615639,47.357117 
	C72.853577,47.264568 71.944656,48.381271 71.102463,48.948551 
	C72.577477,49.535244 74.029312,50.195396 75.539093,50.671951 
	C76.130974,50.858780 76.852730,50.634174 78.093262,50.092800 
z"/>
<path fill="#CDD5D9" opacity="1.000000" stroke="none" 
	d="
M58.763588,54.333668 
	C61.566380,54.626846 63.887402,54.909695 66.208420,55.192547 
	C66.092209,55.765369 65.975990,56.338196 65.859779,56.911018 
	C61.863792,56.911018 57.867805,56.911018 53.260384,56.911018 
	C53.471157,52.696545 53.672771,48.665302 53.874382,44.634064 
	C54.644184,44.664841 55.413986,44.695614 56.183788,44.726391 
	C56.183788,46.742867 55.932434,48.803181 56.273773,50.760117 
	C56.494587,52.026093 57.582474,53.140831 58.763588,54.333668 
z"/>
<path fill="#E3EAED" opacity="1.000000" stroke="none" 
	d="
M38.923737,44.784653 
	C40.665394,46.150379 42.082813,47.500000 43.512386,48.861191 
	C45.363991,47.383320 47.312164,45.828377 49.260334,44.273434 
	C49.468739,44.553852 49.677139,44.834270 49.885540,45.114693 
	C47.932549,48.901855 45.979557,52.689014 43.739384,57.033058 
	C44.210213,57.000313 43.426746,57.203022 43.340538,57.039082 
	C41.291718,53.142811 39.317837,49.207142 37.330284,45.278656 
	C37.753357,45.108620 38.176430,44.938583 38.923737,44.784653 
z"/>
<path fill="#464E53" opacity="1.000000" stroke="none" 
	d="
M77.804298,50.344872 
	C76.852730,50.634174 76.130974,50.858780 75.539093,50.671951 
	C74.029312,50.195396 72.577477,49.535244 71.102463,48.948551 
	C71.944656,48.381271 72.853577,47.264568 73.615639,47.357117 
	C75.392365,47.572899 78.870300,45.591171 77.804298,50.344872 
z"/>
</svg>