<svg version="1.1" id="Layer_1" xmlns="http://www.w3.org/2000/svg" xmlns:xlink="http://www.w3.org/1999/xlink" x="0px" y="0px"
	 width="100%" viewBox="0 0 100 100" enable-background="new 0 0 100 100" xml:space="preserve">
<path fill="#0F9856" opacity="1.000000" stroke="none" 
	d="
M71.000000,101.000000 
	C58.645771,101.000000 46.291546,101.000000 33.324581,100.645813 
	C20.472672,98.124840 10.246728,93.044098 4.818189,80.679253 
	C4.262926,79.111458 3.707455,77.884308 3.164788,76.371483 
	C3.069213,75.722145 2.960836,75.358482 2.920811,74.748131 
	C3.002963,74.331329 3.016762,74.161224 3.054394,73.956833 
	C3.078225,73.922539 3.141536,73.868080 3.516651,73.908966 
	C4.860602,74.133636 6.054584,74.016388 6.764032,74.546997 
	C15.463343,81.053299 25.528305,82.713966 36.419678,82.995705 
	C37.937393,82.949219 39.041302,82.901299 40.067139,82.878586 
	C39.989063,82.903801 40.130302,82.820145 40.143486,83.196274 
	C43.202976,86.395012 48.450279,86.764793 52.408531,84.325989 
	C53.785995,84.011551 54.784630,83.780243 55.843109,83.946991 
	C56.077904,86.910400 57.321758,87.303864 59.493835,86.248177 
	C61.349323,85.346344 63.296791,84.633774 65.179077,83.846573 
	C65.154587,83.855652 65.194931,83.813629 65.173843,84.178360 
	C66.126457,87.769722 67.636818,86.814400 69.980515,85.676430 
	C74.148827,83.652527 77.098656,78.454552 83.186417,80.755600 
	C84.621017,81.297836 87.072311,79.317909 88.989952,78.365486 
	C90.767670,77.482559 92.363556,76.053291 94.221550,75.581512 
	C95.294403,75.309090 96.727600,76.455803 97.985847,77.359955 
	C96.593727,87.134827 86.533638,96.368141 75.020988,98.988914 
	C73.601608,99.312019 72.336563,100.313095 71.000000,101.000000 
z"/>
<path fill="#2DE68D" opacity="1.000000" stroke="none" 
	d="
M32.000000,1.000000 
	C33.714375,1.000000 35.428753,1.000000 37.579231,1.370959 
	C41.683376,7.404026 50.605026,10.186402 56.261810,7.334050 
	C58.899578,6.003994 61.425709,4.452533 64.398438,3.050594 
	C67.534294,4.063199 70.274155,5.026637 72.656876,6.029909 
	C68.197311,9.383716 64.094894,12.697689 59.527138,16.008701 
	C54.375595,16.003656 49.689400,16.001575 44.962341,15.648610 
	C43.309238,14.046382 41.709179,12.778947 40.082279,11.546957 
	C36.417461,8.771733 31.518812,6.949955 32.000000,1.000000 
z"/>
<path fill="#13A05C" opacity="1.000000" stroke="none" 
	d="
M36.005875,82.994270 
	C25.528305,82.713966 15.463343,81.053299 6.764032,74.546997 
	C6.054584,74.016388 4.860602,74.133636 3.459197,73.477478 
	C2.351086,70.336739 1.675543,67.668373 1.000000,65.000000 
	C1.000000,63.611111 1.000000,62.222221 1.346728,60.453522 
	C2.506244,60.596115 3.327726,61.105545 4.130387,61.643078 
	C8.831923,64.791672 13.424491,68.127769 18.312628,70.952812 
	C19.335875,71.544182 21.443111,70.259941 23.347698,70.006645 
	C27.101267,73.433739 30.557966,76.694206 34.146133,80.192017 
	C34.606384,80.551910 34.935169,80.674461 35.205570,80.798729 
	C35.147186,80.800446 35.207375,80.700325 35.224304,81.008453 
	C35.496117,81.875809 35.750996,82.435043 36.005875,82.994270 
z"/>
<path fill="#F4FEF9" opacity="1.000000" stroke="none" 
	d="
M1.000000,29.000000 
	C1.000000,19.737650 1.000000,10.475300 1.000000,1.000000 
	C10.686523,1.000000 20.374605,1.000000 30.412134,1.319695 
	C28.787794,2.649562 26.814003,3.659734 24.505632,4.727283 
	C23.083618,4.962323 21.996183,5.139985 20.549978,5.375674 
	C18.795866,6.288081 17.400524,7.142460 15.674911,8.076247 
	C12.281072,11.777652 9.217505,15.399648 5.934280,19.306492 
	C5.102562,21.407894 4.490502,23.224447 3.777693,25.105606 
	C3.676944,25.170214 3.723933,25.404926 3.427377,25.597324 
	C2.420547,26.859814 1.710273,27.929907 1.000000,29.000000 
z"/>
<path fill="#F5FEFA" opacity="1.000000" stroke="none" 
	d="
M73.000000,1.000000 
	C82.264732,1.000000 91.529465,1.000000 101.000000,1.000000 
	C101.000000,11.353320 101.000000,21.708002 100.673187,32.370163 
	C99.831978,30.800434 99.317581,28.923229 98.836365,26.688858 
	C98.192238,24.563770 97.514931,22.795849 96.809486,20.683279 
	C93.578949,16.760279 90.376549,13.181926 87.186264,9.269779 
	C85.563873,7.898095 83.929359,6.860204 82.038582,5.569548 
	C78.854874,3.877855 75.927437,2.438927 73.000000,1.000000 
z"/>
<path fill="#F7FDFA" opacity="1.000000" stroke="none" 
	d="
M4.817981,81.019905 
	C10.246728,93.044098 20.472672,98.124840 32.855923,100.645813 
	C22.411732,101.000000 11.823463,101.000000 1.000000,101.000000 
	C1.000000,91.980469 1.000000,82.958893 1.319680,73.459732 
	C1.851809,72.964211 2.064257,72.946281 2.349012,73.018875 
	C2.421320,73.109398 2.358113,73.332329 2.298294,73.640259 
	C2.443136,74.297066 2.647796,74.645950 2.852458,74.994827 
	C2.960836,75.358482 3.069213,75.722145 3.109870,76.760803 
	C3.634093,78.630508 4.226037,79.825203 4.817981,81.019905 
z"/>
<path fill="#F9FEFC" opacity="1.000000" stroke="none" 
	d="
M71.468658,101.000000 
	C72.336563,100.313095 73.601608,99.312019 75.020988,98.988914 
	C86.533638,96.368141 96.593727,87.134827 98.268173,77.182938 
	C99.375511,75.406502 100.187752,74.203247 101.000000,73.000000 
	C101.000000,82.262352 101.000000,91.524696 101.000000,101.000000 
	C91.313477,101.000000 81.625397,101.000000 71.468658,101.000000 
z"/>
<path fill="#149F5D" opacity="1.000000" stroke="none" 
	d="
M101.000000,72.539368 
	C100.187752,74.203247 99.375511,75.406502 98.280937,76.786766 
	C96.727600,76.455803 95.294403,75.309090 94.221550,75.581512 
	C92.363556,76.053291 90.767670,77.482559 88.989952,78.365486 
	C87.072311,79.317909 84.621017,81.297836 83.186417,80.755600 
	C77.098656,78.454552 74.148827,83.652527 69.980515,85.676430 
	C67.636818,86.814400 66.126457,87.769722 65.483429,84.049011 
	C70.567307,80.870316 75.320518,78.185699 80.373611,75.331711 
	C78.919312,74.033913 78.082756,73.287384 77.054398,72.369682 
	C78.325607,70.408615 79.563950,68.498238 80.855316,67.027573 
	C81.415329,72.329201 82.640404,73.354927 86.667984,71.008873 
	C90.859695,68.567207 94.516426,65.212875 98.445885,62.310173 
	C99.205406,61.749111 100.144012,61.430473 101.000000,61.000000 
	C101.000000,64.692909 101.000000,68.385818 101.000000,72.539368 
z"/>
<path fill="#13A860" opacity="1.000000" stroke="none" 
	d="
M101.000000,60.550022 
	C100.144012,61.430473 99.205406,61.749111 98.445885,62.310173 
	C94.516426,65.212875 90.859695,68.567207 86.667984,71.008873 
	C82.640404,73.354927 81.415329,72.329201 80.850510,66.849670 
	C80.792671,66.232056 81.053421,65.989136 81.265160,65.863754 
	C81.732346,65.512672 81.895073,65.233017 81.979279,64.517075 
	C82.721519,61.422985 83.449562,58.711212 84.481369,56.002666 
	C85.190193,56.004944 85.595253,56.003998 86.000214,56.374233 
	C86.148483,57.678696 86.296852,58.611980 86.544876,60.172104 
	C91.641823,57.290581 96.320908,54.645290 101.000000,52.000000 
	C101.000000,54.700012 101.000000,57.400028 101.000000,60.550022 
z"/>
<path fill="#1DB56C" opacity="1.000000" stroke="none" 
	d="
M1.000000,29.466118 
	C1.710273,27.929907 2.420547,26.859814 3.502077,26.059231 
	C4.274995,34.732693 8.851880,39.790596 18.362621,42.789890 
	C18.154936,47.467594 17.950861,51.700211 17.540623,55.765953 
	C16.889460,55.068161 16.444462,54.537247 15.948824,53.667049 
	C11.552397,49.695599 7.206611,46.063431 2.827580,42.403477 
	C2.218385,42.935654 1.609193,43.467827 1.000001,44.000000 
	C1.000000,39.310745 1.000000,34.621490 1.000000,29.466118 
z"/>
<path fill="#16AF66" opacity="1.000000" stroke="none" 
	d="
M101.000000,51.555832 
	C96.320908,54.645290 91.641823,57.290581 86.544876,60.172104 
	C86.296852,58.611980 86.148483,57.678696 85.999146,55.945854 
	C84.259193,45.138313 94.387505,45.337696 98.244644,39.463192 
	C99.529449,41.578678 100.264725,42.789341 101.000000,44.000000 
	C101.000000,46.370556 101.000000,48.741116 101.000000,51.555832 
z"/>
<path fill="#15A760" opacity="1.000000" stroke="none" 
	d="
M23.050831,69.840019 
	C21.443111,70.259941 19.335875,71.544182 18.312628,70.952812 
	C13.424491,68.127769 8.831923,64.791672 4.130387,61.643078 
	C3.327726,61.105545 2.506244,60.596115 1.346728,60.036854 
	C1.000000,57.958332 1.000000,55.916668 1.350229,53.475060 
	C4.468964,54.884949 7.403997,56.489201 9.960831,58.560333 
	C12.717384,60.793255 15.382888,61.697933 18.746975,60.088017 
	C20.283337,63.541241 21.667084,66.690628 23.050831,69.840019 
z"/>
<path fill="#15AD65" opacity="1.000000" stroke="none" 
	d="
M18.594360,59.784184 
	C15.382888,61.697933 12.717384,60.793255 9.960831,58.560333 
	C7.403997,56.489201 4.468964,54.884949 1.350229,53.037560 
	C1.000000,50.299988 1.000000,47.599972 1.000001,44.449982 
	C1.609193,43.467827 2.218385,42.935654 2.827580,42.403477 
	C7.206611,46.063431 11.552397,49.695599 15.950459,54.038651 
	C16.651346,55.833454 17.299957,56.917370 18.120197,58.273800 
	C18.392672,58.958939 18.493515,59.371559 18.594360,59.784184 
z"/>
<path fill="#20B56D" opacity="1.000000" stroke="none" 
	d="
M101.000000,43.541931 
	C100.264725,42.789341 99.529449,41.578678 98.244644,39.463192 
	C94.387505,45.337696 84.259193,45.138313 85.999237,55.574669 
	C85.595253,56.003998 85.190193,56.004944 84.424957,55.544037 
	C83.913170,50.839481 83.761566,46.596786 84.001587,42.256470 
	C91.089989,38.926632 96.875992,34.826004 98.803185,27.046024 
	C99.317581,28.923229 99.831978,30.800434 100.673187,32.838821 
	C101.000000,36.361286 101.000000,39.722576 101.000000,43.541931 
z"/>
<path fill="#32EE92" opacity="1.000000" stroke="none" 
	d="
M64.002441,3.001429 
	C61.425709,4.452533 58.899578,6.003994 56.261810,7.334050 
	C50.605026,10.186402 41.683376,7.404026 38.007668,1.370959 
	C46.354233,1.000000 54.708466,1.000000 63.532127,1.333560 
	C64.001854,2.111890 64.002144,2.556660 64.002441,3.001429 
z"/>
<path fill="#28DF88" opacity="1.000000" stroke="none" 
	d="
M24.840214,4.669906 
	C26.814003,3.659734 28.787794,2.649562 30.880791,1.319695 
	C31.000000,1.000000 31.500000,1.000000 31.750000,1.000000 
	C31.518812,6.949955 36.417461,8.771733 40.082279,11.546957 
	C41.709179,12.778947 43.309238,14.046382 44.630638,15.699503 
	C43.900513,16.787821 43.461231,17.474363 42.906044,18.247025 
	C42.790142,18.333145 42.530880,18.205942 42.169716,18.157736 
	C41.201893,18.415186 40.595238,18.720840 39.858723,19.118294 
	C39.728863,19.210093 39.413410,19.169485 39.012863,19.112728 
	C38.077042,19.031811 37.541763,19.007650 36.951973,18.644978 
	C34.550091,16.089769 30.860010,14.215240 30.186432,11.572011 
	C29.292318,8.063361 27.606541,6.212978 24.840214,4.669906 
z"/>
<path fill="#3CD98E" opacity="1.000000" stroke="none" 
	d="
M64.398430,3.050595 
	C64.002144,2.556660 64.001854,2.111890 64.000778,1.333560 
	C66.700012,1.000000 69.400032,1.000000 72.550018,1.000000 
	C75.927437,2.438927 78.854874,3.877855 81.659210,5.635909 
	C81.024483,5.982168 80.512856,6.009301 79.625191,6.022966 
	C77.170784,6.003025 75.092400,5.996551 73.014023,5.990076 
	C70.274155,5.026637 67.534294,4.063199 64.398430,3.050595 
z"/>
<path fill="#0F9856" opacity="1.000000" stroke="none" 
	d="
M2.358113,73.332329 
	C2.358113,73.332329 2.421320,73.109398 2.387154,72.660172 
	C1.901992,71.473961 1.450996,70.736984 1.000000,70.000000 
	C1.000000,68.611107 1.000000,67.222221 1.000000,65.416664 
	C1.675543,67.668373 2.351086,70.336739 3.084083,73.436600 
	C3.141536,73.868080 3.078225,73.922539 2.917799,73.759933 
	C2.757371,73.597321 2.358113,73.332329 2.358113,73.332329 
z"/>
<path fill="#DCFAED" opacity="1.000000" stroke="none" 
	d="
M1.000000,70.375000 
	C1.450996,70.736984 1.901992,71.473961 2.314847,72.569649 
	C2.064257,72.946281 1.851809,72.964211 1.319680,72.991074 
	C1.000000,72.250000 1.000000,71.500000 1.000000,70.375000 
z"/>
<path fill="#EFFCF7" opacity="1.000000" stroke="none" 
	d="
M39.413410,19.169487 
	C39.413410,19.169485 39.728863,19.210093 40.204735,19.132288 
	C41.297363,18.771637 41.914120,18.488791 42.530880,18.205944 
	C42.530880,18.205942 42.790142,18.333145 43.324608,18.251917 
	C50.878551,18.836393 57.898029,19.502098 64.944336,20.113356 
	C64.971169,20.058907 64.871002,20.127504 65.035233,20.384960 
	C65.774879,20.813740 66.350296,20.985062 66.960876,21.124521 
	C66.996056,21.092659 66.901306,21.098381 66.988205,21.344887 
	C67.393188,21.700880 67.711288,21.810366 68.201622,22.142984 
	C68.878670,22.593952 69.383469,22.821789 69.991425,23.282173 
	C70.394012,23.650616 70.693451,23.786510 71.161942,24.137867 
	C71.802895,24.605980 72.274811,24.858633 72.906616,25.411530 
	C75.601257,28.840145 78.136002,31.968517 80.759018,35.449860 
	C81.798347,37.941319 82.749405,40.079811 83.670685,42.247482 
	C83.640907,42.276661 83.609970,42.354092 83.609970,42.354092 
	C83.761566,46.596786 83.913170,50.839481 84.121185,55.540810 
	C83.449562,58.711212 82.721519,61.422985 81.729813,64.609421 
	C81.328560,65.385773 81.190994,65.687454 81.053421,65.989136 
	C81.053421,65.989136 80.792671,66.232056 80.797485,66.409958 
	C79.563950,68.498238 78.325607,70.408615 77.054398,72.369682 
	C78.082756,73.287384 78.919312,74.033913 80.373611,75.331711 
	C75.320518,78.185699 70.567307,80.870316 65.504509,83.684280 
	C65.194931,83.813629 65.154587,83.855652 65.117218,83.459152 
	C64.944214,82.024506 64.808571,80.986343 64.763107,79.593124 
	C64.790329,78.513535 64.727379,77.789001 64.746918,76.649384 
	C64.773666,74.830147 64.717926,73.426010 64.756332,71.635605 
	C64.794525,70.195297 64.738571,69.141258 64.798447,67.797882 
	C66.241425,67.420258 67.568573,67.331955 69.521820,67.202003 
	C70.662949,64.829514 72.038101,61.970478 73.630234,58.851288 
	C74.165817,57.048012 74.484421,55.504894 74.896729,53.540825 
	C74.706245,50.881710 74.422050,48.643551 74.254715,46.323044 
	C74.371574,46.240696 74.277367,45.970745 74.274704,45.588707 
	C73.891899,44.284035 73.511757,43.361404 73.188126,42.316647 
	C73.244637,42.194523 73.051979,42.006607 73.040268,41.661514 
	C72.066490,39.819595 71.104416,38.322773 70.123062,36.868835 
	C70.103775,36.911720 70.197685,36.906723 70.132607,36.627396 
	C69.757309,36.150208 69.447090,35.952343 69.155235,35.810707 
	C69.173599,35.866936 69.260918,35.787113 69.189743,35.492592 
	C68.532425,34.687473 67.946289,34.176872 67.304657,33.680344 
	C67.249161,33.694408 67.307266,33.793068 67.232697,33.510948 
	C66.817429,33.063797 66.476730,32.898769 66.109375,32.805145 
	C66.082710,32.876553 66.234390,32.891800 66.156708,32.603207 
	C65.744904,32.110455 65.410774,31.906296 64.890434,31.418644 
	C54.448486,24.859341 44.063385,25.362104 35.534409,32.630981 
	C33.196163,35.501053 31.200279,38.270901 28.978966,41.331161 
	C28.229717,43.433537 27.705894,45.245495 27.104612,47.500454 
	C26.564083,62.117256 35.287338,73.965935 45.802711,73.539452 
	C45.802711,67.660477 45.802711,61.793144 45.802711,55.860867 
	C42.729034,55.643597 40.117207,55.458973 36.905212,55.231930 
	C36.905212,52.265606 36.905212,49.642052 36.997700,46.843426 
	C37.090187,46.668358 37.087730,46.272369 37.548943,46.235641 
	C46.945019,46.260777 55.879879,46.322643 64.780243,46.307899 
	C64.745743,46.231285 64.638573,46.360710 64.686707,46.775326 
	C64.761993,49.779106 64.789139,52.368267 64.488174,55.049747 
	C63.764515,55.361237 63.368965,55.580410 62.604645,55.665535 
	C60.486790,55.672718 58.737701,55.813942 56.690033,55.959930 
	C56.262455,56.308701 56.133461,56.652710 55.886208,57.321392 
	C55.831337,58.096397 55.894730,58.546730 55.851685,59.455730 
	C55.774548,67.623886 55.803844,75.333382 55.735558,83.160995 
	C55.637978,83.279129 55.783264,83.548943 55.783264,83.548935 
	C54.784630,83.780243 53.785995,84.011551 51.979252,84.206886 
	C47.490860,83.720665 43.810581,83.270409 40.130302,82.820145 
	C40.130302,82.820145 39.989063,82.903801 39.845879,82.617950 
	C38.204254,81.788177 36.705814,81.244255 35.207375,80.700325 
	C35.207375,80.700325 35.147186,80.800446 35.093292,80.545914 
	C34.697823,80.179153 34.356243,80.066917 34.014668,79.954674 
	C30.557966,76.694206 27.101267,73.433739 23.347698,70.006645 
	C21.667084,66.690628 20.283337,63.541241 18.746975,60.088017 
	C18.493515,59.371559 18.392672,58.958939 18.167179,57.924942 
	C17.943951,56.846657 17.845369,56.389744 17.746788,55.932827 
	C17.950861,51.700211 18.154936,47.467594 18.344221,42.749638 
	C18.329432,42.264297 18.261770,42.208054 18.523109,41.980362 
	C18.820513,40.846909 18.856577,39.941151 19.043116,38.723862 
	C20.210365,36.667336 21.227139,34.922333 22.199457,33.136856 
	C22.155003,33.096375 22.104042,33.205288 22.365036,33.110344 
	C22.761627,32.679508 22.897224,32.343620 23.322678,31.845537 
	C26.416691,28.790176 29.220844,25.897011 32.314545,22.955238 
	C33.073795,22.559692 33.543499,22.212753 34.274208,21.849335 
	C34.769302,21.586048 35.003395,21.339241 35.506767,21.079773 
	C36.222698,20.795595 36.669346,20.524078 37.442986,20.218607 
	C38.317791,19.846264 38.865601,19.507875 39.413410,19.169487 
z"/>
<path fill="#149F5D" opacity="1.000000" stroke="none" 
	d="
M64.662186,72.021866 
	C64.717926,73.426010 64.773666,74.830147 64.559723,76.848541 
	C64.417671,78.291260 64.545296,79.119728 64.672928,79.948189 
	C64.808571,80.986343 64.944214,82.024506 65.141716,83.450073 
	C63.296791,84.633774 61.349323,85.346344 59.493835,86.248177 
	C57.321758,87.303864 56.077904,86.910400 55.843109,83.946999 
	C55.783264,83.548943 55.637978,83.279129 56.054802,82.897018 
	C56.647083,81.567184 56.945034,80.623787 56.978634,79.671066 
	C57.250145,71.972267 57.234989,71.971733 64.662186,72.021866 
z"/>
<path fill="#20A264" opacity="1.000000" stroke="none" 
	d="
M40.143486,83.196281 
	C43.810581,83.270409 47.490860,83.720665 51.600426,84.290024 
	C48.450279,86.764793 43.202976,86.395012 40.143486,83.196281 
z"/>
<path fill="#20A264" opacity="1.000000" stroke="none" 
	d="
M35.224304,81.008453 
	C36.705814,81.244255 38.204254,81.788177 39.923950,82.592743 
	C39.041302,82.901299 37.937393,82.949219 36.419678,82.995705 
	C35.750996,82.435043 35.496117,81.875809 35.224304,81.008453 
z"/>
<path fill="#DCFAED" opacity="1.000000" stroke="none" 
	d="
M4.818189,80.679253 
	C4.226037,79.825203 3.634093,78.630508 3.097067,77.046486 
	C3.707455,77.884308 4.262926,79.111458 4.818189,80.679253 
z"/>
<path fill="#DCFAED" opacity="1.000000" stroke="none" 
	d="
M2.298294,73.640259 
	C2.358113,73.332329 2.757371,73.597321 2.893967,73.794220 
	C3.016762,74.161224 3.002963,74.331329 2.920810,74.748131 
	C2.647796,74.645950 2.443136,74.297066 2.298294,73.640259 
z"/>
<path fill="#28D983" opacity="1.000000" stroke="none" 
	d="
M72.656876,6.029910 
	C75.092400,5.996551 77.170784,6.003025 79.624878,6.406449 
	C78.107010,9.928942 76.493362,13.279321 74.224899,16.103790 
	C72.617371,18.105335 70.124840,19.396088 67.744186,21.007973 
	C67.274445,21.040680 67.087875,21.069530 66.901306,21.098381 
	C66.901306,21.098381 66.996056,21.092659 66.820992,20.837669 
	C66.054283,20.430954 65.462646,20.279228 64.871002,20.127502 
	C64.871002,20.127504 64.971169,20.058907 64.834984,19.786270 
	C63.130024,18.346310 61.561253,17.178988 59.992481,16.011663 
	C64.094894,12.697689 68.197311,9.383716 72.656876,6.029910 
z"/>
<path fill="#3CD98E" opacity="1.000000" stroke="none" 
	d="
M59.527138,16.008701 
	C61.561253,17.178988 63.130024,18.346310 64.808151,19.840719 
	C57.898029,19.502098 50.878551,18.836393 43.440514,18.165798 
	C43.461231,17.474363 43.900513,16.787821 44.671501,16.050385 
	C49.689400,16.001575 54.375595,16.003656 59.527138,16.008701 
z"/>
<path fill="#20A264" opacity="1.000000" stroke="none" 
	d="
M34.146133,80.192017 
	C34.356243,80.066917 34.697823,80.179153 35.151680,80.544205 
	C34.935169,80.674461 34.606384,80.551910 34.146133,80.192017 
z"/>
<path fill="#23C778" opacity="1.000000" stroke="none" 
	d="
M32.025002,23.003845 
	C29.220844,25.897011 26.416691,28.790176 23.091360,31.976589 
	C22.414804,32.581654 22.259422,32.893471 22.104042,33.205288 
	C22.104042,33.205288 22.155003,33.096375 21.810802,33.077511 
	C19.842625,32.066502 18.040880,31.277269 16.630322,30.041515 
	C13.319947,27.141380 10.196716,24.027626 6.982550,20.717253 
	C6.696219,19.963329 6.425079,19.492487 6.153939,19.021645 
	C9.217505,15.399648 12.281072,11.777652 15.668594,8.438154 
	C16.132141,10.208109 15.723783,12.140396 16.507088,13.105273 
	C19.732302,17.078110 23.319443,20.757126 26.597210,24.350885 
	C28.723082,23.210493 29.855125,22.603226 31.209335,22.107719 
	C31.705780,22.423090 31.903614,22.684546 32.025002,23.003845 
z"/>
<path fill="#1FBD71" opacity="1.000000" stroke="none" 
	d="
M6.997740,21.000334 
	C10.196716,24.027626 13.319947,27.141380 16.630322,30.041515 
	C18.040880,31.277269 19.842625,32.066502 21.855257,33.117989 
	C21.227139,34.922333 20.210365,36.667336 18.795216,38.960266 
	C18.351816,40.408150 18.306793,41.308102 18.261768,42.208054 
	C18.261770,42.208054 18.329432,42.264297 18.347832,42.304550 
	C8.851880,39.790596 4.274995,34.732693 3.798632,25.866835 
	C3.723933,25.404926 3.676944,25.170214 4.084838,24.959061 
	C5.327734,23.498718 6.162737,22.249527 6.997740,21.000334 
z"/>
<path fill="#23D17D" opacity="1.000000" stroke="none" 
	d="
M30.987171,21.995956 
	C29.855125,22.603226 28.723082,23.210493 26.597210,24.350885 
	C23.319443,20.757126 19.732302,17.078110 16.507088,13.105273 
	C15.723783,12.140396 16.132141,10.208109 15.998868,8.358747 
	C17.400524,7.142460 18.795866,6.288081 20.581041,5.789938 
	C23.309757,9.596635 25.702427,13.012324 27.964806,16.512236 
	C29.095070,18.260757 29.987286,20.163158 30.987171,21.995956 
z"/>
<path fill="#29D683" opacity="1.000000" stroke="none" 
	d="
M31.209335,22.107719 
	C29.987286,20.163158 29.095070,18.260757 27.964806,16.512236 
	C25.702427,13.012324 23.309757,9.596635 20.939814,5.731910 
	C21.996183,5.139985 23.083618,4.962323 24.505632,4.727283 
	C27.606541,6.212978 29.292318,8.063361 30.186432,11.572011 
	C30.860010,14.215240 34.550091,16.089769 36.967552,18.963360 
	C37.063766,19.831024 37.089882,20.041794 37.115997,20.252562 
	C36.669346,20.524078 36.222698,20.795595 35.251228,21.114479 
	C34.488674,21.396502 34.250942,21.631159 34.013206,21.865814 
	C33.543499,22.212753 33.073795,22.559692 32.314545,22.955238 
	C31.903614,22.684546 31.705780,22.423090 31.209335,22.107719 
z"/>
<path fill="#1DB56C" opacity="1.000000" stroke="none" 
	d="
M6.982550,20.717253 
	C6.162737,22.249527 5.327734,23.498718 4.185587,24.894455 
	C4.490502,23.224447 5.102562,21.407894 5.934280,19.306492 
	C6.425079,19.492487 6.696219,19.963329 6.982550,20.717253 
z"/>
<path fill="#21C677" opacity="1.000000" stroke="none" 
	d="
M80.670753,35.096889 
	C78.136002,31.968517 75.601257,28.840145 73.274406,25.255741 
	C81.471703,22.820681 83.854134,15.789736 87.174156,9.603571 
	C90.376549,13.181926 93.578949,16.760279 96.517189,20.853622 
	C90.209534,24.562159 84.726128,28.341188 81.667862,35.023544 
	C81.113724,35.061676 80.892235,35.079285 80.670753,35.096889 
z"/>
<path fill="#1DBE71" opacity="1.000000" stroke="none" 
	d="
M82.000504,35.003017 
	C84.726128,28.341188 90.209534,24.562159 96.545326,21.198269 
	C97.514931,22.795849 98.192238,24.563770 98.836365,26.688858 
	C96.875992,34.826004 91.089989,38.926632 84.001587,42.256470 
	C83.609970,42.354092 83.640907,42.276661 83.765900,41.855778 
	C83.260765,39.290936 82.630630,37.146976 82.000504,35.003017 
z"/>
<path fill="#25D07E" opacity="1.000000" stroke="none" 
	d="
M87.186264,9.269778 
	C83.854134,15.789736 81.471703,22.820681 73.114517,24.955496 
	C72.274811,24.858633 71.802895,24.605980 71.045212,23.918339 
	C70.532799,23.210810 70.242409,23.066235 69.888275,23.049625 
	C69.383469,22.821789 68.878670,22.593952 68.198242,21.914293 
	C68.022629,21.462471 68.027351,21.004122 68.027351,21.004120 
	C70.124840,19.396088 72.617371,18.105335 74.224899,16.103790 
	C76.493362,13.279321 78.107010,9.928942 80.000916,6.419916 
	C80.512856,6.009301 81.024483,5.982168 81.915482,5.888674 
	C83.929359,6.860204 85.563873,7.898095 87.186264,9.269778 
z"/>
<path fill="#149F5D" opacity="1.000000" stroke="none" 
	d="
M81.265160,65.863754 
	C81.190994,65.687454 81.328560,65.385773 81.715607,64.991745 
	C81.895073,65.233017 81.732346,65.512672 81.265160,65.863754 
z"/>
<path fill="#15A760" opacity="1.000000" stroke="none" 
	d="
M17.540623,55.765953 
	C17.845369,56.389744 17.943951,56.846657 17.995550,57.652428 
	C17.299957,56.917370 16.651346,55.833454 16.001099,54.377937 
	C16.444462,54.537247 16.889460,55.068161 17.540623,55.765953 
z"/>
<path fill="#3CD98E" opacity="1.000000" stroke="none" 
	d="
M37.442986,20.218607 
	C37.089882,20.041794 37.063766,19.831024 37.022072,19.301872 
	C37.541763,19.007650 38.077042,19.031811 39.012863,19.112728 
	C38.865601,19.507875 38.317791,19.846264 37.442986,20.218607 
z"/>
<path fill="#3CD98E" opacity="1.000000" stroke="none" 
	d="
M42.169716,18.157738 
	C41.914120,18.488791 41.297363,18.771637 40.334595,19.040489 
	C40.595238,18.720840 41.201893,18.415186 42.169716,18.157738 
z"/>
<path fill="#20C475" opacity="1.000000" stroke="none" 
	d="
M73.051979,42.006607 
	C73.051979,42.006607 73.244637,42.194523 73.151489,42.762589 
	C73.032074,44.216553 73.005806,45.102451 72.624649,46.028851 
	C70.176880,46.048641 68.084007,46.027924 65.646080,46.069153 
	C65.080215,46.207634 64.859390,46.284172 64.638573,46.360710 
	C64.638573,46.360710 64.745743,46.231285 64.651245,45.923954 
	C63.544571,45.102905 62.540989,44.164356 61.518860,44.143707 
	C54.336472,43.998615 47.148266,43.957607 39.967632,44.126266 
	C38.991402,44.149193 38.046917,45.523682 37.087730,46.272369 
	C37.087730,46.272369 37.090187,46.668358 36.771858,46.838097 
	C36.453526,47.007832 36.001678,47.007275 35.658772,46.949341 
	C33.278706,44.941185 31.241550,42.990967 29.204393,41.040749 
	C31.200279,38.270901 33.196163,35.501053 35.547905,32.997959 
	C35.760925,34.309834 35.618095,35.354954 35.505787,36.176739 
	C37.101974,35.920181 38.450420,35.445946 39.759132,35.537815 
	C45.325256,35.928539 50.878124,36.834270 56.438801,36.858059 
	C59.954609,36.873100 63.475658,35.663422 67.195099,35.257072 
	C68.017532,35.603100 68.639221,35.695107 69.260918,35.787113 
	C69.260918,35.787113 69.173599,35.866936 69.222206,36.088768 
	C69.579773,36.509308 69.888725,36.708015 70.197685,36.906723 
	C70.197685,36.906723 70.103775,36.911720 70.075218,37.289719 
	C69.950562,39.874447 69.602432,42.255753 73.051979,42.006607 
z"/>
<path fill="#1FAF6A" opacity="1.000000" stroke="none" 
	d="
M36.001678,47.007275 
	C36.001678,47.007275 36.453526,47.007832 36.679367,47.013161 
	C36.905212,49.642052 36.905212,52.265606 36.905212,55.231930 
	C40.117207,55.458973 42.729034,55.643597 45.802711,55.860867 
	C45.802711,61.793144 45.802711,67.660477 45.802711,73.539452 
	C35.287338,73.965935 26.564083,62.117256 27.351101,47.795174 
	C27.782019,48.287640 28.073296,48.960941 27.966764,49.563965 
	C27.123491,54.337410 30.825020,54.533928 33.706070,54.636799 
	C34.408974,54.661896 35.317081,51.311089 35.960434,49.453449 
	C36.214058,48.721130 36.001797,47.827469 36.001678,47.007275 
z"/>
<path fill="#25CB7C" opacity="1.000000" stroke="none" 
	d="
M66.994354,35.003056 
	C63.475658,35.663422 59.954609,36.873100 56.438801,36.858059 
	C50.878124,36.834270 45.325256,35.928539 39.759132,35.537815 
	C38.450420,35.445946 37.101974,35.920181 35.505787,36.176739 
	C35.618095,35.354954 35.760925,34.309834 35.890259,32.897728 
	C44.063385,25.362104 54.448486,24.859341 64.984467,31.700050 
	C65.587944,32.473900 65.911171,32.682850 66.234390,32.891800 
	C66.234390,32.891800 66.082710,32.876553 66.188660,33.089523 
	C66.632164,33.466022 66.969711,33.629543 67.307266,33.793068 
	C67.307266,33.793068 67.249161,33.694408 67.182404,34.007614 
	C67.075218,34.548237 67.034782,34.775646 66.994354,35.003056 
z"/>
<path fill="#22B971" opacity="1.000000" stroke="none" 
	d="
M65.991127,46.007210 
	C68.084007,46.027924 70.176880,46.048641 72.949310,46.030460 
	C73.845032,45.984627 74.061203,45.977684 74.277367,45.970745 
	C74.277367,45.970745 74.371574,46.240696 74.221489,46.780178 
	C74.315277,49.533699 74.559151,51.747734 74.803024,53.961773 
	C74.484421,55.504894 74.165817,57.048012 73.224747,58.847473 
	C70.917870,59.719723 69.274956,60.637691 67.538696,60.876202 
	C65.293633,61.184612 62.974045,60.950466 60.686546,60.949936 
	C61.448841,59.233150 62.211132,57.516369 62.973419,55.799583 
	C63.368965,55.580410 63.764515,55.361237 64.815125,54.806923 
	C65.643837,51.650257 65.817482,48.828735 65.991127,46.007210 
z"/>
<path fill="#20AE6A" opacity="1.000000" stroke="none" 
	d="
M62.604649,55.665539 
	C62.211132,57.516369 61.448841,59.233150 60.686546,60.949936 
	C62.974045,60.950466 65.293633,61.184612 67.538696,60.876202 
	C69.274956,60.637691 70.917870,59.719723 73.007767,59.107632 
	C72.038101,61.970478 70.662949,64.829514 69.521820,67.202003 
	C67.568573,67.331955 66.241425,67.420258 64.566833,68.043030 
	C62.373390,69.291489 60.527378,70.005486 58.264847,70.880592 
	C57.408665,66.469810 56.683392,62.733437 55.958118,58.997063 
	C55.894730,58.546730 55.831337,58.096397 56.104809,57.205357 
	C56.711636,56.554050 56.893948,56.284225 56.988617,55.955170 
	C58.737701,55.813942 60.486790,55.672718 62.604649,55.665539 
z"/>
<path fill="#1DB86E" opacity="1.000000" stroke="none" 
	d="
M35.658772,46.949341 
	C36.001797,47.827469 36.214058,48.721130 35.960434,49.453449 
	C35.317081,51.311089 34.408974,54.661896 33.706070,54.636799 
	C30.825020,54.533928 27.123491,54.337410 27.966764,49.563965 
	C28.073296,48.960941 27.782019,48.287640 27.428562,47.352180 
	C27.705894,45.245495 28.229717,43.433537 28.978966,41.331161 
	C31.241550,42.990967 33.278706,44.941185 35.658772,46.949341 
z"/>
<path fill="#29BA76" opacity="1.000000" stroke="none" 
	d="
M37.548943,46.235641 
	C38.046917,45.523682 38.991402,44.149193 39.967632,44.126266 
	C47.148266,43.957607 54.336472,43.998615 61.518860,44.143707 
	C62.540989,44.164356 63.544571,45.102905 64.685745,46.000565 
	C55.879879,46.322643 46.945019,46.260777 37.548943,46.235641 
z"/>
<path fill="#20A264" opacity="1.000000" stroke="none" 
	d="
M55.851685,59.455730 
	C56.683392,62.733437 57.408665,66.469810 58.264847,70.880592 
	C60.527378,70.005486 62.373390,69.291489 64.451004,68.332352 
	C64.738571,69.141258 64.794525,70.195297 64.756332,71.635605 
	C57.234989,71.971733 57.250145,71.972267 56.978634,79.671066 
	C56.945034,80.623787 56.647083,81.567184 56.152382,82.778885 
	C55.803844,75.333382 55.774548,67.623886 55.851685,59.455730 
z"/>
<path fill="#29BA76" opacity="1.000000" stroke="none" 
	d="
M73.040268,41.661514 
	C69.602432,42.255753 69.950562,39.874447 70.094498,37.246834 
	C71.104416,38.322773 72.066490,39.819595 73.040268,41.661514 
z"/>
<path fill="#20B56D" opacity="1.000000" stroke="none" 
	d="
M81.667862,35.023544 
	C82.630630,37.146976 83.260765,39.290936 83.795685,41.826599 
	C82.749405,40.079811 81.798347,37.941319 80.759018,35.449860 
	C80.892235,35.079285 81.113724,35.061676 81.667862,35.023544 
z"/>
<path fill="#29BA76" opacity="1.000000" stroke="none" 
	d="
M65.646080,46.069153 
	C65.817482,48.828735 65.643837,51.650257 65.143242,54.714607 
	C64.789139,52.368267 64.761993,49.779106 64.686707,46.775326 
	C64.859390,46.284172 65.080215,46.207634 65.646080,46.069153 
z"/>
<path fill="#29BA76" opacity="1.000000" stroke="none" 
	d="
M74.896729,53.540825 
	C74.559151,51.747734 74.315277,49.533699 74.104630,46.862526 
	C74.422050,48.643551 74.706245,50.881710 74.896729,53.540825 
z"/>
<path fill="#29BA76" opacity="1.000000" stroke="none" 
	d="
M67.195099,35.257072 
	C67.034782,34.775646 67.075218,34.548237 67.237900,33.993549 
	C67.946289,34.176872 68.532425,34.687473 69.189743,35.492592 
	C68.639221,35.695107 68.017532,35.603100 67.195099,35.257072 
z"/>
<path fill="#20A264" opacity="1.000000" stroke="none" 
	d="
M64.763107,79.593124 
	C64.545296,79.119728 64.417671,78.291260 64.477234,77.263641 
	C64.727379,77.789001 64.790329,78.513535 64.763107,79.593124 
z"/>
<path fill="#29BA76" opacity="1.000000" stroke="none" 
	d="
M74.274704,45.588707 
	C74.061203,45.977684 73.845032,45.984627 73.304199,45.989956 
	C73.005806,45.102451 73.032074,44.216553 73.094971,42.884712 
	C73.511757,43.361404 73.891899,44.284035 74.274704,45.588707 
z"/>
<path fill="#1DB56C" opacity="1.000000" stroke="none" 
	d="
M18.523109,41.980362 
	C18.306793,41.308102 18.351816,40.408150 18.644739,39.271797 
	C18.856577,39.941151 18.820513,40.846909 18.523109,41.980362 
z"/>
<path fill="#3CD98E" opacity="1.000000" stroke="none" 
	d="
M65.035233,20.384960 
	C65.462646,20.279228 66.054283,20.430954 66.785812,20.869530 
	C66.350296,20.985062 65.774879,20.813740 65.035233,20.384960 
z"/>
<path fill="#3CD98E" opacity="1.000000" stroke="none" 
	d="
M67.744186,21.007975 
	C68.027351,21.004122 68.022629,21.462471 68.026001,21.691162 
	C67.711288,21.810366 67.393188,21.700880 66.988205,21.344887 
	C67.087875,21.069530 67.274445,21.040680 67.744186,21.007975 
z"/>
<path fill="#3CD98E" opacity="1.000000" stroke="none" 
	d="
M34.274208,21.849335 
	C34.250942,21.631159 34.488674,21.396502 34.981949,21.127140 
	C35.003395,21.339241 34.769302,21.586048 34.274208,21.849335 
z"/>
<path fill="#3CD98E" opacity="1.000000" stroke="none" 
	d="
M69.991425,23.282173 
	C70.242409,23.066235 70.532799,23.210810 70.876167,23.702877 
	C70.693451,23.786510 70.394012,23.650616 69.991425,23.282173 
z"/>
<path fill="#1FBD71" opacity="1.000000" stroke="none" 
	d="
M22.365036,33.110344 
	C22.259422,32.893471 22.414804,32.581654 22.801502,32.138786 
	C22.897224,32.343620 22.761627,32.679508 22.365036,33.110344 
z"/>
<path fill="#20C475" opacity="1.000000" stroke="none" 
	d="
M66.156708,32.603207 
	C65.911171,32.682850 65.587944,32.473900 65.170685,31.983541 
	C65.410774,31.906296 65.744904,32.110455 66.156708,32.603207 
z"/>
<path fill="#29BA76" opacity="1.000000" stroke="none" 
	d="
M67.232697,33.510948 
	C66.969711,33.629543 66.632164,33.466022 66.215317,33.018120 
	C66.476730,32.898769 66.817429,33.063797 67.232697,33.510948 
z"/>
<path fill="#20A264" opacity="1.000000" stroke="none" 
	d="
M56.690033,55.959930 
	C56.893948,56.284225 56.711636,56.554050 56.223072,56.880684 
	C56.133461,56.652710 56.262455,56.308701 56.690033,55.959930 
z"/>
<path fill="#29BA76" opacity="1.000000" stroke="none" 
	d="
M70.132607,36.627396 
	C69.888725,36.708015 69.579773,36.509308 69.203842,36.032539 
	C69.447090,35.952343 69.757309,36.150208 70.132607,36.627396 
z"/>
</svg>